<?xml version="1.0" encoding="iso-8859-1"?>
<!-- Generator: Adobe Illustrator 19.0.0, SVG Export Plug-In . SVG Version: 6.00 Build 0)  -->
<svg version="1.1" id="Layer_1" xmlns="http://www.w3.org/2000/svg" xmlns:xlink="http://www.w3.org/1999/xlink" x="0px" y="0px"
	 viewBox="0 0 510.258 510.258" style="enable-background:new 0 0 510.258 510.258;" xml:space="preserve">
<g>
	<g>
		<path d="M453.486,47.586h-36.571v-12.8c0-10.971-7.314-18.286-18.286-18.286s-18.286,7.314-18.286,18.286v12.8h-42.057v-12.8
			c0-10.971-7.314-18.286-18.286-18.286s-18.286,7.314-18.286,18.286v12.8h-58.514v-12.8c0-10.971-7.314-18.286-18.286-18.286
			c-10.971,0-18.286,7.314-18.286,18.286v12.8h-58.514v-12.8c0-10.971-7.314-18.286-18.286-18.286s-18.286,7.314-18.286,18.286v12.8
			H58.514C27.429,47.586,0,75.015,0,106.101v329.143c0,32.914,27.429,58.514,58.514,58.514h393.143
			c32.914,0,58.514-27.429,58.514-58.514V106.1C512,75.015,484.572,47.586,453.486,47.586z M475.429,437.072
			c0,12.8-10.971,21.943-21.943,21.943H58.514c-12.799,0-21.943-10.971-21.943-21.943V179.244h345.6
			c10.971,0,18.286-7.314,18.286-18.286s-7.314-18.286-18.286-18.286h-345.6v-36.571c0-12.799,10.971-21.943,21.943-21.943h51.2
			v12.8c0,10.971,7.314,18.286,18.286,18.286s18.286-7.314,18.286-18.286v-12.8H204.8v12.8c0,10.971,7.314,18.286,18.286,18.286
			s18.286-7.314,18.286-18.286v-12.8h58.514v12.8c0,10.971,7.314,18.286,18.286,18.286s18.286-7.314,18.286-18.286v-12.8h42.057
			v12.8c0,10.971,7.314,18.286,18.286,18.286s18.286-7.314,18.286-18.286v-12.8h36.571c12.8,0,21.943,10.971,21.943,21.943v36.571
			h-29.257c-10.971,0-18.286,7.314-18.286,18.286s7.314,18.286,18.286,18.286h31.086V437.072z"/>
	</g>
</g>
<g>
	<g>
		<path d="M415.086,221.3H96.915c-10.971,0-18.286,7.314-18.286,18.286v159.085c0,10.971,7.314,18.286,18.286,18.286h316.342
			c10.971,0,18.286-7.314,18.286-18.286V239.586C433.372,230.444,424.229,221.3,415.086,221.3z M115.2,259.701h42.058v42.057H115.2
			V259.701z M157.258,380.386h-42.058v-42.057h42.058V380.386z M237.714,380.386h-42.058v-42.057h42.058V380.386z M237.714,301.758
			h-42.058v-42.057h42.058V301.758z M316.342,380.386h-42.057v-42.057h42.057V380.386z M316.342,301.758h-42.057v-42.057h42.057
			V301.758z M394.971,380.386h-42.057v-42.057h42.057V380.386z M394.971,299.928h-42.057v-42.057h42.057V299.928z"/>
	</g>
</g>
<g>
</g>
<g>
</g>
<g>
</g>
<g>
</g>
<g>
</g>
<g>
</g>
<g>
</g>
<g>
</g>
<g>
</g>
<g>
</g>
<g>
</g>
<g>
</g>
<g>
</g>
<g>
</g>
<g>
</g>
</svg>
