<?xml version="1.0" encoding="iso-8859-1"?>
<!-- Generator: Adobe Illustrator 19.0.0, SVG Export Plug-In . SVG Version: 6.00 Build 0)  -->
<svg version="1.1" id="Layer_1" xmlns="http://www.w3.org/2000/svg" xmlns:xlink="http://www.w3.org/1999/xlink" x="0px" y="0px"
	 viewBox="0 0 512 512" style="enable-background:new 0 0 512 512;" xml:space="preserve">
<path style="fill:#FEE187;" d="M74.854,124.258H25.45c-5.788,0-10.48-4.692-10.48-10.478V55.391c0-5.786,4.692-10.478,10.478-10.478
	h461.102c5.788,0,10.478,4.692,10.478,10.478v58.388c0,5.788-4.692,10.478-10.478,10.478H164.679H74.854V124.258z"/>
<path style="fill:#FFC61B;" d="M486.551,139.229H25.449C11.417,139.229,0,127.812,0,113.778V55.392
	c0-14.034,11.417-25.45,25.449-25.45h461.102c14.032,0,25.449,11.417,25.449,25.45v58.386
	C512,127.812,500.583,139.229,486.551,139.229z M29.942,109.287h452.117V59.883H29.942V109.287z"/>
<path style="fill:#FEE187;" d="M74.854,295.673H25.45c-5.788,0-10.478-4.692-10.478-10.478v-58.388
	c0-5.788,4.692-10.478,10.478-10.478h461.102c5.788,0,10.478,4.692,10.478,10.478v58.388c0,5.788-4.692,10.478-10.478,10.478
	H164.679H74.854z"/>
<g>
	<path style="fill:#FFC61B;" d="M486.551,310.644H25.449C11.417,310.644,0,299.227,0,285.193v-58.388
		c0-14.034,11.417-25.45,25.449-25.45h461.102c14.032,0,25.449,11.417,25.449,25.45v58.389
		C512,299.227,500.583,310.644,486.551,310.644z M29.942,280.702h452.117v-49.404H29.942V280.702z"/>
	<path style="fill:#FFC61B;" d="M486.551,482.058H25.449C11.417,482.058,0,470.642,0,456.608V398.22
		c0-14.034,11.417-25.45,25.449-25.45h321.873c8.268,0,14.971,6.702,14.971,14.971s-6.702,14.971-14.971,14.971H29.942v49.404
		h452.117v-49.404h-44.913c-8.268,0-14.971-6.702-14.971-14.971c0-8.268,6.702-14.971,14.971-14.971h49.404
		c14.032,0,25.449,11.417,25.449,25.45v58.388C512,470.642,500.583,482.058,486.551,482.058z"/>
</g>
<g>
</g>
<g>
</g>
<g>
</g>
<g>
</g>
<g>
</g>
<g>
</g>
<g>
</g>
<g>
</g>
<g>
</g>
<g>
</g>
<g>
</g>
<g>
</g>
<g>
</g>
<g>
</g>
<g>
</g>
</svg>
